<svg width="30" height="18" viewBox="0 0 30 18" fill="none" xmlns="http://www.w3.org/2000/svg">
<path d="M8.522 0.182003C9.812 0.182003 10.93 0.655003 11.876 1.601C12.822 2.461 13.295 3.579 13.295 4.955C13.295 10.975 10.758 15.017 5.684 17.081C4.222 17.683 3.018 17.984 2.072 17.984C1.04 17.984 0.523999 17.769 0.523999 17.339C0.523999 17.081 0.867999 16.952 1.556 16.952C7.49 16.178 10.887 13.039 11.747 7.535C10.457 9.08301 8.995 9.85701 7.361 9.85701C6.157 9.85701 5.168 9.38401 4.394 8.43801C3.62 7.57801 3.233 6.50301 3.233 5.213C3.233 3.92301 3.792 2.76201 4.91 1.73C5.942 0.698003 7.146 0.182003 8.522 0.182003ZM25.163 0.182002C26.453 0.182002 27.571 0.655002 28.517 1.601C29.463 2.461 29.936 3.579 29.936 4.955C29.936 10.975 27.399 15.017 22.325 17.081C20.863 17.683 19.659 17.984 18.713 17.984C17.681 17.984 17.165 17.769 17.165 17.339C17.165 17.081 17.509 16.952 18.197 16.952C24.131 16.178 27.528 13.039 28.388 7.535C27.098 9.083 25.636 9.857 24.002 9.857C22.798 9.857 21.809 9.384 21.035 8.438C20.261 7.578 19.874 6.503 19.874 5.213C19.874 3.923 20.433 2.762 21.551 1.73C22.583 0.698002 23.787 0.182002 25.163 0.182002Z" fill="#D9D9D9" fill-opacity="0.5"/>
</svg>
