<svg width="30" height="18" viewBox="0 0 30 18" fill="none" xmlns="http://www.w3.org/2000/svg">
<path d="M21.478 17.818C20.188 17.818 19.07 17.345 18.124 16.399C17.178 15.539 16.705 14.421 16.705 13.045C16.705 7.025 19.242 2.983 24.316 0.918997C25.778 0.316997 26.982 0.0159972 27.928 0.0159972C28.96 0.0159972 29.476 0.230997 29.476 0.660997C29.476 0.918996 29.132 1.048 28.444 1.048C22.51 1.822 19.113 4.961 18.253 10.465C19.543 8.917 21.005 8.143 22.639 8.143C23.843 8.143 24.832 8.616 25.606 9.562C26.38 10.422 26.767 11.497 26.767 12.787C26.767 14.077 26.208 15.238 25.09 16.27C24.058 17.302 22.854 17.818 21.478 17.818ZM4.837 17.818C3.547 17.818 2.429 17.345 1.483 16.399C0.537 15.539 0.0640001 14.421 0.0640001 13.045C0.0640001 7.025 2.601 2.983 7.675 0.918997C9.137 0.316997 10.341 0.0159972 11.287 0.0159972C12.319 0.0159972 12.835 0.230997 12.835 0.660997C12.835 0.918996 12.491 1.048 11.803 1.048C5.869 1.822 2.472 4.961 1.612 10.465C2.902 8.917 4.364 8.143 5.998 8.143C7.202 8.143 8.191 8.616 8.965 9.562C9.739 10.422 10.126 11.497 10.126 12.787C10.126 14.077 9.567 15.238 8.449 16.27C7.417 17.302 6.213 17.818 4.837 17.818Z" fill="#D9D9D9" fill-opacity="0.5"/>
</svg>
